<svg width="92" height="92" viewBox="0 0 92 92" fill="none" xmlns="http://www.w3.org/2000/svg">
  <circle cx="46" cy="46" r="46" fill="#212121"/>
  <path d="M46 67C57.598 67 67 57.598 67 46C67 34.402 57.598 25 46 25C34.402 25 25 34.402 25 46C25 57.598 34.402 67 46 67Z" fill="#212121" stroke="#6366F1" stroke-width="2"/>
  <path d="M46 59C53.1797 59 59 53.1797 59 46C59 38.8203 53.1797 33 46 33C38.8203 33 33 38.8203 33 46C33 53.1797 38.8203 59 46 59Z" fill="#212121"/>
  <path d="M46 33L59.5 55H32.5L46 33Z" fill="#8A2BE2"/>
  <path d="M46 59L32.5 37H59.5L46 59Z" fill="#9333EA"/>
  <circle cx="46" cy="46" r="6" fill="#A855F7"/>
</svg>
